<svg width="16" height="16" viewBox="0 0 16 16" fill="none" xmlns="http://www.w3.org/2000/svg">
<path d="M8 16C12.4183 16 16 12.4183 16 8C16 3.58172 12.4183 0 8 0C3.58172 0 0 3.58172 0 8C0 12.4183 3.58172 16 8 16Z" fill="#F0F0F0"/>
<path d="M15.9998 8.00001C15.9998 4.82832 14.154 2.08782 11.478 0.793823V15.2062C14.154 13.9122 15.9998 11.1717 15.9998 8.00001V8.00001Z" fill="#D80027"/>
<path d="M0 8.00001C0 11.1717 1.84578 13.9122 4.52175 15.2062V0.793823C1.84578 2.08782 0 4.82832 0 8.00001Z" fill="#D80027"/>
<path d="M9.39119 9.04344L10.7825 8.34778L10.0868 7.99997V7.30431L8.69553 7.99997L9.39119 6.60865H8.69553L7.99988 5.56519L7.30422 6.60865H6.60857L7.30422 7.99997L5.91291 7.30431V7.99997L5.21729 8.34778L6.60857 9.04344L6.26075 9.73909H7.65207V10.7826H8.34769V9.73909H9.739L9.39119 9.04344Z" fill="#D80027"/>
</svg>
