<svg width="16" height="16" viewBox="0 0 16 16" fill="none" xmlns="http://www.w3.org/2000/svg">
<path d="M8 16C12.4183 16 16 12.4183 16 8C16 3.58172 12.4183 0 8 0C3.58172 0 0 3.58172 0 8C0 12.4183 3.58172 16 8 16Z" fill="#0052B4"/>
<path d="M8.00002 3.13049L8.25905 3.92765H9.09718L8.41908 4.42031L8.67811 5.21746L8.00002 4.72477L7.32189 5.21746L7.58093 4.42031L6.90283 3.92765H7.74099L8.00002 3.13049Z" fill="#FFDA44"/>
<path d="M4.55682 4.55673L5.3037 4.93723L5.89635 4.3446L5.7652 5.17242L6.51204 5.55295L5.6842 5.68407L5.55307 6.51195L5.17254 5.7651L4.34473 5.89626L4.93738 5.3036L4.55682 4.55673Z" fill="#FFDA44"/>
<path d="M3.13037 8.00002L3.92753 7.74099V6.90283L4.42015 7.58096L5.21734 7.32193L4.72462 8.00002L5.21734 8.67811L4.42015 8.41911L3.92753 9.09721V8.25905L3.13037 8.00002Z" fill="#FFDA44"/>
<path d="M4.55682 11.4433L4.93735 10.6965L4.34473 10.1038L5.17257 10.235L5.55304 9.48816L5.6842 10.316L6.51201 10.4471L5.76526 10.8277L5.89635 11.6555L5.3037 11.0628L4.55682 11.4433Z" fill="#FFDA44"/>
<path d="M8.00002 12.8696L7.74096 12.0725H6.90283L7.58096 11.5798L7.32189 10.7827L8.00002 11.2753L8.67811 10.7827L8.41908 11.5798L9.09718 12.0725H8.25902L8.00002 12.8696Z" fill="#FFDA44"/>
<path d="M11.4434 11.4433L10.6966 11.0628L10.1039 11.6555L10.2351 10.8276L9.48828 10.4471L10.3161 10.316L10.4472 9.48816L10.8277 10.235L11.6555 10.1038L11.0629 10.6965L11.4434 11.4433Z" fill="#FFDA44"/>
<path d="M12.8696 8.00002L12.0725 8.25905V9.09721L11.5798 8.41908L10.7827 8.67811L11.2754 8.00002L10.7827 7.32193L11.5798 7.58096L12.0725 6.90283V7.74102L12.8696 8.00002Z" fill="#FFDA44"/>
<path d="M11.4434 4.5567L11.0629 5.30357L11.6556 5.89623L10.8277 5.76504L10.4472 6.51189L10.3161 5.68404L9.48828 5.55289L10.2351 5.17239L10.1039 4.3446L10.6966 4.93723L11.4434 4.5567Z" fill="#FFDA44"/>
</svg>
