<svg width="16" height="16" viewBox="0 0 16 16" fill="none" xmlns="http://www.w3.org/2000/svg">
<path d="M8 16C12.4183 16 16 12.4183 16 8C16 3.58172 12.4183 0 8 0C3.58172 0 0 3.58172 0 8C0 12.4183 3.58172 16 8 16Z" fill="#F0F0F0"/>
<path d="M8.00013 0C4.82844 0 2.08795 1.84578 0.793945 4.52175H15.2063C13.9123 1.84578 11.1718 0 8.00013 0V0Z" fill="#FF9811"/>
<path d="M8.00013 16C11.1718 16 13.9123 14.1542 15.2063 11.4783H0.793945C2.08795 14.1542 4.82844 16 8.00013 16Z" fill="#6DA544"/>
<path d="M7.99988 10.7826C9.53666 10.7826 10.7825 9.53679 10.7825 8C10.7825 6.46322 9.53666 5.21741 7.99988 5.21741C6.46309 5.21741 5.21729 6.46322 5.21729 8C5.21729 9.53679 6.46309 10.7826 7.99988 10.7826Z" fill="#0052B4"/>
<path d="M7.99987 9.73911C8.96036 9.73911 9.73899 8.96048 9.73899 7.99999C9.73899 7.0395 8.96036 6.26086 7.99987 6.26086C7.03937 6.26086 6.26074 7.0395 6.26074 7.99999C6.26074 8.96048 7.03937 9.73911 7.99987 9.73911Z" fill="#F0F0F0"/>
<path d="M8.00013 5.85388L8.53666 7.07069L9.85866 6.92691L9.07316 7.99994L9.85866 9.07298L8.53666 8.92919L8.00013 10.146L7.4636 8.92919L6.1416 9.07294L6.9271 7.99994L6.1416 6.92691L7.4636 7.07069L8.00013 5.85388Z" fill="#0052B4"/>
</svg>
